<svg width="39" height="39" viewBox="0 0 39 39" fill="none" xmlns="http://www.w3.org/2000/svg">
<path d="M19.5 39C30.2695 39 39 30.2695 39 19.5C39 8.73045 30.2695 0 19.5 0C8.73045 0 0 8.73045 0 19.5C0 30.2695 8.73045 39 19.5 39Z" fill="#66436E"/>
<path d="M14.5173 28.2965L24.5442 38.3233C32.8486 36.1088 39 28.5426 39 19.5C39 19.3154 39 19.1309 39 18.9464L31.1262 11.6877L14.5173 28.2965Z" fill="#513857"/>
<path d="M19.9921 23.8675C20.8533 24.7287 20.8533 26.205 19.9921 27.0662L18.2082 28.8502C17.347 29.7114 15.8707 29.7114 15.0095 28.8502L7.19716 20.9763C6.33596 20.1151 6.33596 18.6388 7.19716 17.7776L8.98107 15.9937C9.84227 15.1325 11.3186 15.1325 12.1798 15.9937L19.9921 23.8675Z" fill="white"/>
<path d="M26.8202 10.2729C27.6814 9.41165 29.1577 9.41165 30.0189 10.2729L31.8028 12.0568C32.664 12.918 32.664 14.3943 31.8028 15.2555L18.2697 28.7271C17.4085 29.5883 15.9322 29.5883 15.071 28.7271L13.2871 26.9432C12.4259 26.082 12.4259 24.6057 13.2871 23.7445L26.8202 10.2729Z" fill="white"/>
</svg>
